<svg xmlns="http://www.w3.org/2000/svg" viewBox="-2 -2 16 16"><path id="pa" d="m6,6 l-1,-1 l2,-2 l-2,-2 l1,-1 m0,2 l1,-1 l1,1 m2,2 l-1,-1 l-1,1 l1,1 l-1,1 m2,2 l1,-1 l-1,-1 m2,0 l-1,-1 l-2,2 l-2,-2 l-2,2 l-1,-1 l-1,1 l1,1 l-1,1 l-1,-1 m-2,-2 l1,1 l1,-1 m-1,-1 m3,-3 l-1,1 l1,1 l1,-1 l1,1 m-4,0 l-1,1 l1,1 l1,-1 l1,1 m1,1 m2,0 m0,3 m1,0 m1,-1 m-1,1 l1,-1 l-1,-1 l-1,1 l-1,-1 m-2,2 l1,1 l1,-1 m0,2 l1,-1 l-2,-2 l2,-2 l-1,-1" stroke="black" stroke-width="1" fill="none" stroke-linecap="square" stroke-linejoin="miter"/>
</svg>